<?xml version="1.0" encoding="UTF-8" standalone="no"?>
<!-- Created with Inkscape (http://www.inkscape.org/) -->

<svg
   version="1.1"
   id="svg824"
   xml:space="preserve"
   width="2560"
   height="1440"
   viewBox="0 0 2560 1440"
   sodipodi:docname="under-construction.svg"
   inkscape:version="1.1 (c68e22c387, 2021-05-23)"
   xmlns:inkscape="http://www.inkscape.org/namespaces/inkscape"
   xmlns:sodipodi="http://sodipodi.sourceforge.net/DTD/sodipodi-0.dtd"
   xmlns="http://www.w3.org/2000/svg"
   xmlns:svg="http://www.w3.org/2000/svg"><defs
     id="defs828"><clipPath
       clipPathUnits="userSpaceOnUse"
       id="clipPath840"><path
         d="M 0,1080 H 1920 V 0 H 0 Z"
         id="path838" /></clipPath><clipPath
       clipPathUnits="userSpaceOnUse"
       id="clipPath858"><path
         d="M 0,1080 H 1920 V 0 H 0 Z"
         id="path856" /></clipPath></defs><sodipodi:namedview
     id="namedview826"
     pagecolor="#ffffff"
     bordercolor="#666666"
     borderopacity="1.0"
     inkscape:pageshadow="2"
     inkscape:pageopacity="0.0"
     inkscape:pagecheckerboard="0"
     showgrid="false"
     inkscape:zoom="0.20964611"
     inkscape:cx="915.82905"
     inkscape:cy="756.03596"
     inkscape:window-width="1366"
     inkscape:window-height="705"
     inkscape:window-x="-8"
     inkscape:window-y="-8"
     inkscape:window-maximized="1"
     inkscape:current-layer="g834" /><g
     id="g830"
     inkscape:groupmode="layer"
     inkscape:label="under-construction"
     transform="matrix(1.3333333,0,0,-1.3333333,0,1440)"><g
       id="g834" /><text
       transform="matrix(1,0,0,-1,524.0732,437.7012)"
       style="font-variant:normal;font-weight:normal;font-stretch:normal;font-size:61.1789px;font-family:'Google Sans Display';-inkscape-font-specification:GoogleSansDisplay-Regular;writing-mode:lr-tb;fill:#ffffff;fill-opacity:1;fill-rule:nonzero;stroke:none"
       id="text846"><tspan
         x="0 48.698406 83.386841 118.07528 153.43668 165.30539 198.342 211.92371 254.50423 286.92905 317.33496 350.37155 362.24026 396.6228 433.08542 466.12204 487.90173 499.64807 531.70581 552.99609 585.9715 621.14935 654.18597 685.93781 707.22809 719.58624 763.5127 775.68726 808.96857 844.15259"
         y="0"
         sodipodi:role="line"
         id="tspan844">Google Developer Student Clubs</tspan></text><text
       transform="scale(1,-1)"
       style="font-style:normal;font-variant:normal;font-weight:normal;font-stretch:normal;font-size:61.1789px;font-family:sans-serif;-inkscape-font-specification:'sans-serif, Normal';font-variant-ligatures:normal;font-variant-caps:normal;font-variant-numeric:normal;font-variant-east-asian:normal;writing-mode:lr-tb;fill:#ffffff;fill-opacity:1;fill-rule:nonzero;stroke:none"
       id="text846-4"
       x="756.28442"
       y="-216.84792"><tspan
         sodipodi:role="line"
         id="tspan844-0"
         x="756.28442"
         y="-216.84792">Coming Soon</tspan></text><text
       transform="scale(1,-1)"
       style="font-variant:normal;font-weight:normal;font-stretch:normal;font-size:43.0092px;font-family:'Google Sans Display';-inkscape-font-specification:'Google Sans Display, Normal';writing-mode:lr-tb;fill:#ffffff;fill-opacity:1;fill-rule:nonzero;stroke:none;font-style:normal;font-variant-ligatures:normal;font-variant-caps:normal;font-variant-numeric:normal;font-variant-east-asian:normal"
       id="text850"
       x="620.03467"
       y="-365.05661"><tspan
         sodipodi:role="line"
         id="tspan848"
         x="620.03467"
         y="-365.05661">Pamantasan ng Lungsod ng Maynila</tspan></text><g
       id="g852"><g
         id="g854"
         clip-path="url(#clipPath858)"><g
           id="g860"
           transform="translate(936.8452,577.0376)"><path
             d="m 0,0 -68.41,39.496 c -3.068,1.772 -6.418,2.614 -9.722,2.614 -6.733,0 -13.28,-3.495 -16.888,-9.744 -5.379,-9.318 -2.188,-21.231 7.13,-26.61 l 68.41,-39.496 c 3.068,-1.772 6.417,-2.614 9.722,-2.614 6.733,0 13.28,3.495 16.888,9.744 C 12.51,-17.293 9.317,-5.379 0,0"
             style="fill:#ffffff;fill-opacity:1;fill-rule:nonzero;stroke:none"
             id="path862" /></g><g
           id="g864"
           transform="translate(1073.2686,616.5337)"><path
             d="m 0,0 -68.409,39.497 c -3.069,1.771 -6.418,2.613 -9.723,2.613 -6.732,0 -13.279,-3.493 -16.888,-9.743 -5.379,-9.317 -2.187,-21.23 7.13,-26.61 l 68.411,-39.497 c 3.067,-1.771 6.416,-2.614 9.72,-2.614 6.734,0 13.28,3.494 16.889,9.744 C 12.51,-17.293 9.317,-5.38 0,0"
             style="fill:#ffffff;fill-opacity:1;fill-rule:nonzero;stroke:none"
             id="path866" /></g><g
           id="g868"
           transform="translate(1051.0801,578.1016)"><path
             d="M 0,0 -31.929,18.435 -65.701,-1.064 c -9.318,-5.379 -12.51,-17.293 -7.13,-26.61 3.607,-6.249 10.156,-9.743 16.889,-9.743 3.304,0 6.653,0.841 9.721,2.613 L 8.77,-3.056 C 5.697,-2.595 2.716,-1.567 0,0"
             style="fill:#ffffff;fill-opacity:1;fill-rule:nonzero;stroke:none"
             id="path870" /></g><g
           id="g872"
           transform="translate(871.144,621.2256)"><path
             d="M 0,0 31.929,-18.434 65.701,1.065 c 9.318,5.379 12.51,17.293 7.131,26.61 -5.38,9.317 -17.293,12.51 -26.611,7.13 L -8.769,3.056 C -5.695,2.595 -2.714,1.568 0,0"
             style="fill:#ffffff;fill-opacity:1;fill-rule:nonzero;stroke:none"
             id="path874" /></g></g></g></g></svg>
